inDegrees=yes
name=ik_S53_A13_T03
DataType=double
version=3
OpenSimVersion=4.3-2021-08-27-4bc7ad9
endheader
time	pelvis_tilt	pelvis_list	pelvis_rotation	pelvis_tx	pelvis_ty	pelvis_tz	hip_flexion_r	hip_adduction_r	hip_rotation_r	knee_angle_r	knee_angle_r_beta	ankle_angle_r	subtalar_angle_r	mtp_angle_r	hip_flexion_l	hip_adduction_l	hip_rotation_l	knee_angle_l	knee_angle_l_beta	ankle_angle_l	subtalar_angle_l	mtp_angle_l	lumbar_extension	lumbar_bending	lumbar_rotation	arm_flex_r	arm_add_r	arm_rot_r	elbow_flex_r	pro_sup_r	wrist_flex_r	wrist_dev_r	arm_flex_l	arm_add_l	arm_rot_l	elbow_flex_l	pro_sup_l	wrist_flex_l	wrist_dev_l
3.100000000000002	0.5134798433839227	1.513211003097343	-12.46123825004045	0	0.9399999999999999	0	20.67193995039471	-7.718293690408438	-6.480907889768727	24.63549325572026	0.4299704701651759	0	0	0	20.67193995039471	-7.718293690408438	-6.480907889768727	24.63549325572026	0.4299704701651759	0	0	0	0.4789182398380794	-0.6875440409535988	4.611185726947952	56.07833483943949	-33.83397281252471	22.84539306798651	115.3829172509461	59.494536480199	0	0	71.50238150215174	-10.73479399239468	29.12347932916344	6.765044963139557	99.38474814863251	0	0
3.120000000000002	0.5162595304249528	1.537551272270518	-12.70789361147296	0	0.9399999999999999	0	20.68765957723807	-7.72286920994856	-6.485463514931236	24.65065449832959	0.4302350837674023	0	0	0	20.68765957723807	-7.72286920994856	-6.485463514931236	24.65065449832959	0.4302350837674023	0	0	0	0.472385671278476	-0.66257471436612	4.721794467632639	56.05823208373816	-33.59369998620637	22.87079310569344	113.423353863311	60.46655340883765	0	0	71.55434062215963	-11.02437634065176	28.62621762697404	7.241676662768175	99.65567875564304	0	0
3.140000000000002	0.5400085176080391	1.538662215329015	-12.87095671281958	0	0.9399999999999999	0	20.70859648490546	-7.728915534254122	-6.491508149921025	24.67090315434392	0.4305884894839562	0	0	0	20.70859648490546	-7.728915534254122	-6.491508149921025	24.67090315434392	0.4305884894839562	0	0	0	0.4917201247806171	-0.6535634323033281	4.845137006192568	55.9304254155484	-33.44887132846628	22.82530255643473	111.4406262057071	60.10964489457993	0	0	71.57514155089434	-11.1806445090801	28.40479423380719	7.545364370295346	99.78288509708013	0	0
3.160000000000002	0.5433458203459112	1.546543483586896	-12.9550830908256	0	0.9399999999999999	0	20.72685700517046	-7.734266365177628	-6.496823951952373	24.68836814700515	0.4308933111097312	0	0	0	20.72685700517046	-7.734266365177628	-6.496823951952373	24.68836814700515	0.4308933111097312	0	0	0	0.4939306301487194	-0.6431069159311369	4.864538754707134	54.63816422675976	-32.44697030182604	21.74314962345234	109.2121065306028	60.3340698865523	0	0	71.57832857074797	-11.34694015645373	28.31118281931069	8.180909781214913	99.60866558769094	0	0
3.180000000000002	0.5475220569750596	1.534092972785251	-13.14451321919864	0	0.9399999999999999	0	20.74303799404412	-7.738968935282465	-6.501512623103684	24.70393643162244	0.4311650289351906	0	0	0	20.74303799404412	-7.738968935282465	-6.501512623103684	24.70393643162244	0.4311650289351906	0	0	0	0.496164189099327	-0.6509545574547571	5.040396653726217	54.52066809980371	-32.28080859213072	21.63349421826318	106.8151267460238	59.3906299169748	0	0	71.53619524113861	-11.41861807395815	28.37721224900281	8.867999131956282	99.38272702812093	0	0
3.200000000000002	0.5520763148338037	1.50287816343853	-13.33948548299713	0	0.9399999999999999	0	20.75930347813043	-7.743693414061189	-6.506225308423506	24.71957590023401	0.4314379891557248	0	0	0	20.75930347813043	-7.743693414061189	-6.506225308423506	24.71957590023401	0.4314379891557248	0	0	0	0.5022378442542	-0.6762931237143727	5.254447041637881	54.34969013781355	-32.09524439335181	21.43706866889436	104.1890953635616	58.3301948916919	0	0	71.4827321609208	-11.40390167222224	28.48913689451943	9.549175637243446	99.25256985336119	0	0
3.220000000000002	0.557971042853074	1.463341321394881	-13.52535268655295	0	0.9399999999999999	0	20.77123258183592	-7.74713630831213	-6.509669199617641	24.73109874146254	0.4316391006743471	0	0	0	20.77123258183592	-7.74713630831213	-6.509669199617641	24.73109874146254	0.4316391006743471	0	0	0	0.5105525542344936	-0.7092727527484665	5.515180619080947	54.1470707890528	-31.96457093607215	21.18979038040377	101.587962609955	56.68960324542982	0	0	71.413768432626	-11.30731889320506	28.66088851074451	10.58548319701301	98.92963519531538	0	0
